<mxfile host="app.diagrams.net" agent="Mozilla/5.0 (Windows NT 10.0; Win64; x64) AppleWebKit/537.36 (KHTML, like Gecko) Chrome/127.0.0.0 Safari/537.36 Edg/127.0.0.0" version="24.7.7">
  <diagram name="Page-1" id="CEwbT4bm9x87VrAS69Ei">
    <mxGraphModel dx="1426" dy="903" grid="1" gridSize="10" guides="1" tooltips="1" connect="1" arrows="1" fold="1" page="1" pageScale="1" pageWidth="850" pageHeight="1100" math="0" shadow="0">
      <root>
        <mxCell id="0" />
        <mxCell id="1" parent="0" />
        <mxCell id="DuKF0Wrtbr9PxpBubpYH-11" value="" style="group" vertex="1" connectable="0" parent="1">
          <mxGeometry x="520" y="630" width="250" height="230" as="geometry" />
        </mxCell>
        <mxCell id="DuKF0Wrtbr9PxpBubpYH-9" value="" style="group" vertex="1" connectable="0" parent="DuKF0Wrtbr9PxpBubpYH-11">
          <mxGeometry y="30" width="250" height="200" as="geometry" />
        </mxCell>
        <mxCell id="DuKF0Wrtbr9PxpBubpYH-1" value="Users&lt;div&gt;(postgres)&lt;/div&gt;" style="strokeWidth=2;html=1;shape=mxgraph.flowchart.database;whiteSpace=wrap;movable=1;resizable=1;rotatable=1;deletable=1;editable=1;locked=0;connectable=1;" vertex="1" parent="DuKF0Wrtbr9PxpBubpYH-9">
          <mxGeometry x="20" y="110" width="90" height="90" as="geometry" />
        </mxCell>
        <mxCell id="DuKF0Wrtbr9PxpBubpYH-2" value="Transactions&lt;div&gt;(postgres)&lt;/div&gt;" style="strokeWidth=2;html=1;shape=mxgraph.flowchart.database;whiteSpace=wrap;movable=1;resizable=1;rotatable=1;deletable=1;editable=1;locked=0;connectable=1;" vertex="1" parent="DuKF0Wrtbr9PxpBubpYH-9">
          <mxGeometry x="150" y="110" width="90" height="90" as="geometry" />
        </mxCell>
        <UserObject label="Data Management Service&lt;div&gt;(DMS)&lt;/div&gt;" treeRoot="1" id="DuKF0Wrtbr9PxpBubpYH-3">
          <mxCell style="whiteSpace=wrap;html=1;align=center;treeFolding=1;treeMoving=1;newEdgeStyle={&quot;edgeStyle&quot;:&quot;elbowEdgeStyle&quot;,&quot;startArrow&quot;:&quot;none&quot;,&quot;endArrow&quot;:&quot;none&quot;};movable=1;resizable=1;rotatable=1;deletable=1;editable=1;locked=0;connectable=1;" vertex="1" parent="DuKF0Wrtbr9PxpBubpYH-9">
            <mxGeometry width="250" height="60" as="geometry" />
          </mxCell>
        </UserObject>
        <mxCell id="DuKF0Wrtbr9PxpBubpYH-4" value="" style="shape=singleArrow;direction=south;whiteSpace=wrap;html=1;movable=1;resizable=1;rotatable=1;deletable=1;editable=1;locked=0;connectable=1;" vertex="1" parent="DuKF0Wrtbr9PxpBubpYH-9">
          <mxGeometry x="50" y="60" width="20" height="50" as="geometry" />
        </mxCell>
        <mxCell id="DuKF0Wrtbr9PxpBubpYH-7" value="" style="shape=singleArrow;direction=south;whiteSpace=wrap;html=1;movable=1;resizable=1;rotatable=1;deletable=1;editable=1;locked=0;connectable=1;" vertex="1" parent="DuKF0Wrtbr9PxpBubpYH-9">
          <mxGeometry x="185" y="60" width="20" height="50" as="geometry" />
        </mxCell>
        <mxCell id="DuKF0Wrtbr9PxpBubpYH-10" value="Open API (dms service)" style="rounded=0;whiteSpace=wrap;html=1;" vertex="1" parent="DuKF0Wrtbr9PxpBubpYH-11">
          <mxGeometry width="250" height="30" as="geometry" />
        </mxCell>
        <mxCell id="DuKF0Wrtbr9PxpBubpYH-12" value="nginx" style="rounded=0;whiteSpace=wrap;html=1;" vertex="1" parent="1">
          <mxGeometry x="70" y="70" width="120" height="60" as="geometry" />
        </mxCell>
        <mxCell id="DuKF0Wrtbr9PxpBubpYH-13" value="registration" style="rounded=0;whiteSpace=wrap;html=1;" vertex="1" parent="1">
          <mxGeometry x="270" y="150" width="120" height="60" as="geometry" />
        </mxCell>
        <mxCell id="DuKF0Wrtbr9PxpBubpYH-14" value="login" style="rounded=0;whiteSpace=wrap;html=1;" vertex="1" parent="1">
          <mxGeometry x="270" y="70" width="120" height="60" as="geometry" />
        </mxCell>
        <mxCell id="DuKF0Wrtbr9PxpBubpYH-15" value="transactions" style="rounded=0;whiteSpace=wrap;html=1;" vertex="1" parent="1">
          <mxGeometry x="270" y="230" width="120" height="60" as="geometry" />
        </mxCell>
        <mxCell id="DuKF0Wrtbr9PxpBubpYH-23" value="" style="strokeColor=#dddddd;shadow=1;strokeWidth=1;rounded=1;absoluteArcSize=1;arcSize=2;" vertex="1" parent="1">
          <mxGeometry x="350" y="450" width="190" height="50" as="geometry" />
        </mxCell>
        <mxCell id="DuKF0Wrtbr9PxpBubpYH-24" value="Task Queue&lt;div&gt;(celery)&lt;/div&gt;" style="sketch=0;dashed=0;connectable=0;html=1;fillColor=#757575;strokeColor=none;shape=mxgraph.gcp2.task_queues;part=1;labelPosition=right;verticalLabelPosition=middle;align=left;verticalAlign=middle;spacingLeft=5;fontSize=12;" vertex="1" parent="DuKF0Wrtbr9PxpBubpYH-23">
          <mxGeometry y="0.5" width="32" height="32" relative="1" as="geometry">
            <mxPoint x="5" y="-16" as="offset" />
          </mxGeometry>
        </mxCell>
        <mxCell id="DuKF0Wrtbr9PxpBubpYH-27" style="edgeStyle=orthogonalEdgeStyle;rounded=0;orthogonalLoop=1;jettySize=auto;html=1;entryX=0.25;entryY=0;entryDx=0;entryDy=0;exitX=0.5;exitY=1;exitDx=0;exitDy=0;" edge="1" parent="1" source="DuKF0Wrtbr9PxpBubpYH-26" target="DuKF0Wrtbr9PxpBubpYH-10">
          <mxGeometry relative="1" as="geometry" />
        </mxCell>
        <mxCell id="DuKF0Wrtbr9PxpBubpYH-26" value="Open API&amp;nbsp;&lt;div&gt;(dms client)&lt;/div&gt;" style="rounded=0;whiteSpace=wrap;html=1;" vertex="1" parent="1">
          <mxGeometry x="350" y="500" width="85" height="40" as="geometry" />
        </mxCell>
        <mxCell id="DuKF0Wrtbr9PxpBubpYH-29" value="Open API&amp;nbsp;&lt;div&gt;(celery service)&lt;/div&gt;" style="rounded=0;whiteSpace=wrap;html=1;" vertex="1" parent="1">
          <mxGeometry x="350" y="410" width="100" height="40" as="geometry" />
        </mxCell>
        <mxCell id="DuKF0Wrtbr9PxpBubpYH-31" style="edgeStyle=orthogonalEdgeStyle;rounded=0;orthogonalLoop=1;jettySize=auto;html=1;exitX=1;exitY=0.5;exitDx=0;exitDy=0;entryX=0.61;entryY=-0.075;entryDx=0;entryDy=0;entryPerimeter=0;" edge="1" parent="1" source="DuKF0Wrtbr9PxpBubpYH-15" target="DuKF0Wrtbr9PxpBubpYH-29">
          <mxGeometry relative="1" as="geometry" />
        </mxCell>
        <mxCell id="DuKF0Wrtbr9PxpBubpYH-32" value="Open API&amp;nbsp;&lt;div&gt;(dms client)&lt;/div&gt;" style="rounded=0;whiteSpace=wrap;html=1;" vertex="1" parent="1">
          <mxGeometry x="435" y="500" width="85" height="40" as="geometry" />
        </mxCell>
      </root>
    </mxGraphModel>
  </diagram>
</mxfile>
